<svg width="40" height="40" viewBox="0 0 40 40" fill="none" xmlns="http://www.w3.org/2000/svg">
<g clip-path="url(#clip0_584_46)">
<path d="M37.2916 6.61455H34.7969C34.263 4.01715 31.9527 2.04364 29.1919 2.04364C26.431 2.04364 24.1207 4.01715 23.5868 6.61455H16.6151C16.0812 4.01715 13.7709 2.04364 11.01 2.04364C8.24918 2.04364 5.93887 4.01715 5.40502 6.61455H2.91048C1.37887 6.61455 0 7.80676 0 9.33836V35.1636C0 36.6952 1.37887 37.9565 2.91048 37.9565H37.2918C38.8234 37.9565 40.0002 36.6952 40.0002 35.1636V9.33836C40 7.80676 38.8232 6.61455 37.2916 6.61455ZM16.2771 31.7228H5.36797V18.3894H16.2771V31.7228ZM25.4545 31.7228H20.2597V27.0475H25.4545V31.7228ZM25.4545 23.2379H20.2597V18.3894H25.4545V23.2379ZM34.632 31.7228H29.4372V27.0475H34.632V31.7228ZM34.632 23.2379H29.4372V18.3894H34.632V23.2379Z" fill="#6D5DFC"/>
</g>
<defs>
<clipPath id="clip0_584_46">
<rect width="40" height="40" fill="white"/>
</clipPath>
</defs>
</svg>
