<svg width="25" height="19" viewBox="0 0 25 19" fill="none" xmlns="http://www.w3.org/2000/svg">
<path d="M22.3896 0H2.31619C1.03897 0 0 1.05133 0 2.34376V16.4063C0 17.6986 1.03897 18.7501 2.31619 18.7501H22.3896C23.6669 18.7501 24.7059 17.6986 24.7059 16.4063V2.34376C24.7059 1.05133 23.6669 0 22.3896 0ZM22.3896 1.56249C22.4946 1.56249 22.5944 1.58452 22.6856 1.62298L12.3529 10.685L2.02022 1.62298C2.11145 1.58456 2.21125 1.56249 2.31614 1.56249H22.3896ZM22.3896 17.1875H2.31619C1.89021 17.1875 1.54411 16.8374 1.54411 16.4062V3.27376L11.8471 12.3092C11.9926 12.4366 12.1727 12.5001 12.3529 12.5001C12.5332 12.5001 12.7133 12.4366 12.8588 12.3092L23.1618 3.27376V16.4063C23.1618 16.8374 22.8156 17.1875 22.3896 17.1875Z" fill="#9BAACF"/>
</svg>
