<!-- icon666.com - MILLIONS vector ICONS FREE --><svg viewBox="0 0 32 32" xmlns="http://www.w3.org/2000/svg"><g id="Out"><path d="m25.85 13.15-2-2a.495.495 0 0 0 -.7.7l1.14 1.15h-3.29v-7.5a.4951.4951 0 0 0 -.5-.5h-12.25l5.21 4.35a1.487 1.487 0 0 1 .54 1.15v11.5h6.5a.4951.4951 0 0 0 .5-.5v-6.5h-3.5a.5.5 0 0 1 0-1h6.79l-1.14 1.15a.495.495 0 0 0 .7.7l2-2a.4833.4833 0 0 0 0-.7z" fill="#000000" style="fill: rgb(255, 255, 255);"></path><path d="m6.82 5.1162a.5.5 0 0 0 -.82.3838v16a.4993.4993 0 0 0 .18.3838l6 5a.497.497 0 0 0 .32.1162.4994.4994 0 0 0 .5-.5v-16a.4993.4993 0 0 0 -.18-.3838z" fill="#000000" style="fill: rgb(255, 255, 255);"></path></g></svg>