<svg width="38" height="20" viewBox="0 0 38 20" fill="none" xmlns="http://www.w3.org/2000/svg">
<g clip-path="url(#clip0_581_41)">
<path d="M18.6199 20C14.4321 20 9.92525 18.3839 5.58629 15.3261C2.34269 13.0402 0.340686 10.7757 0.257032 10.6803C-0.0856773 10.2898 -0.0856773 9.71019 0.257032 9.31961C0.340686 9.22434 2.3426 6.95961 5.58629 4.67385C9.92533 1.61634 14.4323 0 18.6199 0C22.8075 0 27.3145 1.61626 31.6534 4.67385C34.897 6.95961 36.899 9.22425 36.9826 9.31961C37.3254 9.7101 37.3254 10.2897 36.9826 10.6803C36.899 10.7756 34.897 13.0402 31.6534 15.3261C27.3145 18.3837 22.8076 20 18.6199 20ZM2.49685 10.0001C3.30646 10.8147 4.8344 12.2473 6.85182 13.664C9.61758 15.6061 13.9043 17.9216 18.6199 17.9216C23.3354 17.9216 27.6222 15.6061 30.3878 13.664C32.405 12.2475 33.9331 10.8148 34.7429 10.0001C33.9334 9.18542 32.4053 7.7529 30.3878 6.33618C27.6222 4.39394 23.3354 2.07858 18.6199 2.07858C13.9043 2.07858 9.61758 4.39394 6.85182 6.33618C4.83465 7.75265 3.30662 9.18517 2.49685 10.0001Z" fill="#9BAACF"/>
<path d="M18.6201 16.4433C15.0199 16.4433 12.0911 13.5529 12.0911 10.0002C12.0911 6.44754 15.0199 3.55713 18.6201 3.55713C20.2034 3.55713 21.7307 4.12363 22.9206 5.15235C23.358 5.53054 23.4021 6.18708 23.0188 6.6188C22.6356 7.05053 21.9703 7.09384 21.5329 6.71574C20.7272 6.01914 19.6925 5.63554 18.6199 5.63554C16.1812 5.63554 14.1971 7.59358 14.1971 10.0002C14.1971 12.4069 16.1812 14.3649 18.6199 14.3649C21.0589 14.3649 23.0429 12.4069 23.0429 10.0002C23.0429 9.42633 23.5143 8.96102 24.0959 8.96102C24.6774 8.96102 25.149 9.42633 25.149 10.0002C25.1491 13.5529 22.2202 16.4433 18.6201 16.4433Z" fill="#9BAACF"/>
<path d="M18.6199 12.0792C17.4585 12.0792 16.5137 11.1468 16.5137 10.0008C16.5137 8.85474 17.4585 7.92236 18.6199 7.92236C19.7813 7.92236 20.726 8.85474 20.726 10.0008C20.726 11.1468 19.7813 12.0792 18.6199 12.0792Z" fill="#9BAACF"/>
</g>
<defs>
<clipPath id="clip0_581_41">
<rect width="38" height="20" fill="white"/>
</clipPath>
</defs>
</svg>
