<svg width="16" height="20" viewBox="0 0 16 20" fill="none" xmlns="http://www.w3.org/2000/svg">
<path d="M1.31096 20H14.6889C15.243 20 15.6922 19.593 15.6922 19.0909V8.78785C15.6922 8.28585 15.243 7.87877 14.6889 7.87877H13.6855V5.15152C13.6855 2.31097 11.135 0 7.99992 0C4.86487 0 2.31431 2.31097 2.31431 5.15152V7.87877H1.31096C0.756848 7.87877 0.307617 8.28585 0.307617 8.78785V19.0909C0.307617 19.593 0.756848 20 1.31096 20ZM10.8415 13.2943L7.99862 15.8701C7.80277 16.0475 7.54592 16.1364 7.28923 16.1364C7.03246 16.1364 6.77562 16.0475 6.57977 15.8701L5.15839 14.5822C4.76655 14.2272 4.76655 13.6516 5.15839 13.2965C5.55016 12.9415 6.18546 12.9415 6.57731 13.2965L7.28931 13.9415L9.42269 12.0087C9.81446 11.6536 10.4498 11.6536 10.8416 12.0087C11.2334 12.3638 11.2334 12.9393 10.8415 13.2943ZM4.32099 5.15152C4.32099 3.31352 5.97139 1.81818 7.99992 1.81818C10.0285 1.81818 11.6788 3.31352 11.6788 5.15152V7.87877H4.32099V5.15152Z" fill="#9BAACF"/>
</svg>
