<!-- icon666.com - MILLIONS vector ICONS FREE --><svg id="Layer_1" enable-background="new 0 0 512 512" viewBox="0 0 512 512" xmlns="http://www.w3.org/2000/svg"><path d="m256 181c-24.814 0-45 20.186-45 45s20.186 45 45 45 45-20.186 45-45-20.186-45-45-45z" fill="#000000" style="fill: rgb(255, 255, 255);"></path><path d="m31 0v451h60v61l109.102-61h280.898v-451zm360 256c0 24.814-20.186 45-45 45-16.035 0-30.038-8.494-38.009-21.154-13.5 13.037-31.787 21.154-51.991 21.154-41.353 0-75-33.647-75-75s33.647-75 75-75 75 33.647 75 75v30c0 8.276 6.724 15 15 15s15-6.724 15-15v-30c0-57.891-47.109-105-105-105s-105 47.109-105 105 47.109 105 105 105c17.886 0 34.131-3.838 48.633-11.089l13.418 26.836c-18.648 9.331-39.536 14.253-60.381 14.253-76.113 0-136.67-60.557-136.67-135s60.557-135 135-135 135 60.557 135 135z" fill="#000000" style="fill: rgb(255, 255, 255);"></path></svg>